<?xml version="1.0" encoding="UTF-8"?><svg xmlns="http://www.w3.org/2000/svg" viewBox="0 0 99.98 99.98"><defs><style>.cls-1{fill:#2e3192;}.cls-2{fill:#fff;stroke:#2e3192;stroke-miterlimit:10;}</style></defs><g id="Base"><circle class="cls-2" cx="49.99" cy="49.99" r="49.49"/><circle class="cls-2" cx="50.11" cy="50.06" r="34.12"/></g><g id="Symbol"><g><path class="cls-1" d="M11.61,23.74c.35-.6,.8-1.3,1.36-2,1.01-1.27,2.03-1.95,3.07-2.1,1.05-.17,2.13,.11,3.24,.99,1.12,.89,1.76,1.97,1.88,3.11,.13,1.15-.36,2.49-1.43,3.82-.5,.63-.95,1.14-1.36,1.55l-6.76-5.37Zm6.78,3.94c.22-.19,.49-.51,.76-.86,1.51-1.9,1.27-3.77-.59-5.24-1.61-1.3-3.37-1.2-4.86,.68-.36,.46-.6,.84-.73,1.11l5.42,4.31Z"/><path class="cls-1" d="M22.31,20.17c1.03,1.16,2.19,1,3.06,.26,.62-.53,.91-.96,1.11-1.38l.68,.5c-.19,.4-.58,1.01-1.34,1.66-1.47,1.26-3.18,1.05-4.42-.4-1.24-1.44-1.36-3.31,.03-4.5,1.56-1.34,3.15-.32,3.91,.56,.15,.18,.25,.33,.32,.43l-3.36,2.88Zm2.02-2.81c-.46-.56-1.44-1.22-2.42-.38-.88,.75-.57,1.9-.12,2.56l2.54-2.18Z"/><path class="cls-1" d="M27.79,18c.4,0,1.04-.12,1.52-.42,.7-.45,.81-1.01,.53-1.45-.29-.46-.73-.54-1.61-.35-1.17,.26-1.96,.02-2.36-.62-.54-.86-.29-2,.85-2.72,.54-.34,1.11-.49,1.52-.5l.2,.86c-.29,0-.79,.07-1.28,.38-.57,.36-.68,.89-.43,1.29,.28,.44,.72,.44,1.58,.26,1.15-.23,1.91-.07,2.41,.72,.59,.94,.28,2.05-.98,2.85-.58,.37-1.21,.57-1.73,.58l-.22-.89Z"/><path class="cls-1" d="M30.32,8.61c.19,.34,.07,.75-.34,.95-.36,.18-.76,.03-.93-.32-.18-.36-.05-.77,.32-.96,.38-.19,.77-.03,.95,.33Zm2.45,7.8l-2.81-5.64,1.03-.51,2.81,5.64-1.03,.51Z"/><path class="cls-1" d="M38.35,7.41c.12,.44,.26,.93,.51,1.65l1.19,3.46c.47,1.37,.49,2.3,.08,3.01-.39,.74-1.17,1.2-1.92,1.46-.71,.25-1.56,.34-2.15,.19v-.92c.47,.11,1.16,.12,1.9-.13,1.11-.38,1.72-1.24,1.21-2.74l-.23-.67h-.02c-.14,.68-.63,1.34-1.55,1.66-1.48,.51-2.97-.39-3.53-2.04-.69-2.02,.23-3.62,1.6-4.09,1.03-.35,1.79,0,2.21,.4h.02s-.26-.92-.26-.92l.95-.33Zm-.31,2.74c-.06-.18-.13-.34-.23-.47-.41-.56-1.12-.9-1.91-.63-1.03,.35-1.47,1.48-1,2.86,.4,1.17,1.33,1.94,2.5,1.54,.67-.23,1.12-.85,1.12-1.62,0-.21-.05-.42-.11-.61l-.37-1.07Z"/><path class="cls-1" d="M41.05,8.51c-.1-.64-.19-1.17-.31-1.68l1-.15,.22,1.02h.03c.22-.64,.85-1.33,1.88-1.49,.86-.13,2.28,.18,2.6,2.32l.56,3.72-1.13,.17-.54-3.59c-.15-1-.65-1.78-1.72-1.62-.75,.11-1.24,.73-1.34,1.39-.03,.15-.03,.35,0,.54l.57,3.74-1.13,.17-.69-4.54Z"/><path class="cls-1" d="M56.62,12.69c-.22-.27-.43-.54-.73-.94-.82,.62-1.7,.83-2.65,.73-1.7-.18-2.56-1.42-2.42-2.73,.12-1.19,.92-1.93,1.98-2.37v-.04c-.39-.62-.59-1.28-.53-1.9,.11-1.06,.99-2.07,2.44-1.92,1.09,.11,1.85,.93,1.73,2.05-.1,.92-.7,1.59-2.16,2.13v.04c.64,.93,1.37,1.98,1.86,2.66,.46-.57,.83-1.38,1.11-2.46l1.04,.11c-.38,1.35-.87,2.4-1.59,3.09,.41,.54,.82,1.08,1.27,1.69l-1.35-.14Zm-1.21-1.65c-.46-.62-1.32-1.79-2.17-3-.5,.25-1.21,.74-1.31,1.65-.1,1,.55,1.84,1.6,1.95,.75,.08,1.42-.19,1.88-.6Zm-2.09-5.6c-.07,.62,.17,1.13,.5,1.63,.93-.41,1.55-.82,1.63-1.56,.06-.53-.18-1.16-.89-1.23-.72-.08-1.16,.48-1.23,1.15Z"/><path class="cls-1" d="M64.11,5.62c.54,.11,1.24,.28,2.1,.6,1.05,.39,1.73,.92,2.05,1.54,.3,.56,.35,1.26,.08,1.99-.28,.74-.72,1.25-1.29,1.52-.78,.39-1.81,.35-2.85-.04-.32-.12-.6-.24-.83-.39l-1.23,3.29-1.06-.4,3.04-8.12Zm-.42,4.36c.21,.15,.49,.28,.85,.41,1.28,.48,2.29,.15,2.72-.98,.41-1.08-.17-1.9-1.34-2.33-.46-.17-.83-.27-1.03-.29l-1.2,3.19Z"/><path class="cls-1" d="M69.03,12.34c.35-.65,.64-1.22,.88-1.76l.88,.47-.55,1.11,.05,.02c.65-.61,1.51-.75,2.19-.39,.12,.06,.19,.12,.27,.19l-.51,.95c-.09-.08-.19-.15-.33-.22-.71-.38-1.5-.11-2.05,.57-.1,.13-.21,.27-.3,.45l-1.59,2.96-1-.54,2.05-3.82Z"/><path class="cls-1" d="M76.85,18.77c-1.38,1.88-3.28,1.74-4.51,.84-1.38-1.01-1.7-2.8-.52-4.4,1.25-1.7,3.09-1.88,4.5-.85,1.46,1.07,1.67,2.86,.53,4.41Zm-4.07-2.91c-.82,1.11-.79,2.42,.11,3.09,.88,.65,2.15,.3,2.99-.84,.63-.86,1-2.27-.09-3.07s-2.3-.14-3.01,.83Z"/><path class="cls-1" d="M82.4,17.37l-1.27,1.29,1.17,1.15-.61,.62-1.17-1.15-2.38,2.43c-.55,.56-.7,1.03-.24,1.47,.21,.21,.4,.34,.53,.41l-.56,.65c-.22-.09-.52-.29-.83-.6-.38-.37-.57-.79-.55-1.21,0-.47,.31-.95,.83-1.48l2.41-2.45-.7-.68,.61-.62,.7,.68,1.06-1.08,1.01,.57Z"/><path class="cls-1" d="M84.56,27.52c-1.85,1.42-3.64,.76-4.57-.45-1.04-1.35-.85-3.16,.73-4.37,1.67-1.29,3.5-.94,4.56,.44,1.1,1.44,.81,3.21-.72,4.38Zm-3.1-3.93c-1.09,.84-1.44,2.11-.75,2.99,.67,.87,1.98,.89,3.11,.03,.85-.65,1.6-1.9,.77-2.97s-2.17-.78-3.12-.05Z"/><path class="cls-1" d="M90.28,27.72l-1.58,.89,.8,1.43-.76,.43-.8-1.43-2.96,1.66c-.68,.38-.96,.79-.65,1.35,.15,.26,.29,.44,.39,.54l-.72,.47c-.19-.15-.42-.42-.63-.81-.26-.47-.33-.92-.19-1.31,.14-.45,.57-.83,1.21-1.19l3-1.68-.48-.85,.76-.43,.48,.85,1.32-.74,.81,.83Z"/><path class="cls-1" d="M90.51,32.17l-2.95,2.66c-.33,.29-.74,.61-1.05,.85v.02c.4-.03,.9-.09,1.38-.11l3.9-.2,.45,1.13-4.81,.06c-2.31,.04-3.55-.08-4.46-.55-.67-.34-1.05-.79-1.21-1.03l.79-.62c.19,.23,.5,.52,.89,.73,.34,.2,.9,.4,1.54,.42,.13,0,.23,0,.29-.02s.14-.08,.25-.18l4.54-4.31,.46,1.16Z"/><path class="cls-1" d="M90.72,38.63c.79-.17,1.42-.33,2-.48l.21,1.01-1.05,.27v.03c.85,.3,1.45,.93,1.67,1.94,.31,1.49-.71,2.88-2.58,3.27-2.22,.47-3.6-.65-3.9-2.1-.17-.82,.03-1.6,.57-2.1v-.03s-3.36,.71-3.36,.71l-.23-1.11,6.68-1.41Zm-1.41,1.46c-.17,.03-.31,.09-.45,.15-.73,.37-1.13,1.16-.96,1.96,.25,1.18,1.36,1.67,2.78,1.37,1.24-.26,2.16-1.13,1.91-2.32-.16-.76-.86-1.36-1.75-1.4-.15,0-.32-.01-.47,.02l-1.06,.22Z"/><path class="cls-1" d="M87.79,46.51l6.29-.49,.09,1.14-6.29,.49-.09-1.14Zm8.15,.65c-.39,.04-.72-.22-.76-.67-.03-.4,.26-.71,.65-.74,.4-.03,.74,.24,.77,.66,.03,.43-.26,.73-.66,.76Z"/><path class="cls-1" d="M92.62,49.51c.65,.03,1.18,.05,1.71,.03l-.05,1.01h-1.04s0,.04,0,.04c.58,.34,1.13,1.1,1.08,2.14-.04,.87-.63,2.2-2.79,2.09l-3.76-.19,.06-1.14,3.63,.18c1.01,.05,1.88-.29,1.93-1.36,.04-.75-.47-1.37-1.09-1.59-.14-.06-.33-.09-.53-.1l-3.78-.19,.06-1.14,4.59,.23Z"/><path class="cls-1" d="M92.47,62.82c-.44-.13-.93-.27-1.67-.44l-3.56-.83c-1.41-.33-2.21-.81-2.6-1.53-.42-.73-.39-1.63-.21-2.4,.17-.74,.54-1.51,.98-1.92l.78,.48c-.35,.35-.72,.93-.9,1.69-.27,1.14,.13,2.12,1.68,2.48l.68,.16v-.03c-.48-.48-.79-1.24-.57-2.19,.36-1.52,1.9-2.31,3.6-1.91,2.08,.49,2.94,2.12,2.61,3.52-.25,1.07-.94,1.52-1.51,1.67v.03s.91,.27,.91,.27l-.23,.98Zm-2.15-1.72c.19,.04,.36,.07,.52,.05,.69-.05,1.35-.47,1.54-1.28,.25-1.07-.47-2.04-1.89-2.37-1.2-.28-2.35,.09-2.63,1.3-.16,.68,.13,1.41,.78,1.81,.18,.11,.39,.18,.58,.23l1.1,.26Z"/></g><g><path class="cls-1" d="M88.16,76.83c-.36,.6-.81,1.29-1.38,1.98-1.03,1.26-2.05,1.92-3.09,2.06-1.05,.15-2.12-.14-3.22-1.03-1.11-.9-1.74-1.99-1.84-3.13-.12-1.15,.4-2.48,1.47-3.8,.51-.62,.97-1.12,1.38-1.53l6.69,5.45Zm-6.73-4.02c-.22,.19-.5,.5-.77,.85-1.53,1.88-1.31,3.75,.52,5.25,1.6,1.32,3.35,1.24,4.87-.62,.37-.45,.61-.83,.75-1.1l-5.37-4.38Z"/><path class="cls-1" d="M77.45,80.26c-1.01-1.17-2.18-1.02-3.06-.29-.63,.53-.92,.95-1.13,1.37l-.68-.5c.19-.4,.59-1,1.36-1.65,1.49-1.25,3.19-1.01,4.42,.45s1.32,3.32-.08,4.5c-1.58,1.32-3.16,.29-3.9-.6-.15-.18-.25-.34-.31-.43l3.39-2.84Zm-2.05,2.79c.46,.57,1.43,1.23,2.41,.41,.89-.74,.59-1.89,.15-2.56l-2.57,2.15Z"/><path class="cls-1" d="M71.94,82.36c-.4-.01-1.04,.1-1.52,.4-.71,.44-.82,1-.55,1.44,.29,.47,.72,.55,1.6,.37,1.18-.25,1.96,0,2.35,.65,.53,.86,.27,2-.88,2.71-.54,.33-1.12,.47-1.52,.48l-.19-.86c.29,0,.79-.06,1.29-.37,.58-.35,.69-.88,.45-1.28-.27-.44-.72-.45-1.58-.28-1.15,.22-1.91,.05-2.4-.75-.58-.94-.26-2.06,1.02-2.84,.59-.36,1.22-.55,1.73-.56l.21,.89Z"/><path class="cls-1" d="M66.91,83.92l2.73,5.68-1.03,.5-2.73-5.68,1.03-.5Zm2.35,7.83c-.18-.35-.06-.75,.35-.95,.36-.18,.76-.02,.93,.33,.18,.36,.04,.78-.33,.96-.39,.19-.77,.02-.94-.34Z"/><path class="cls-1" d="M61.26,92.84c-.12-.44-.25-.93-.49-1.66l-1.15-3.47c-.45-1.37-.46-2.3-.05-3.01,.4-.74,1.18-1.19,1.94-1.44,.72-.24,1.56-.33,2.15-.16v.92c-.48-.12-1.17-.13-1.91,.11-1.11,.37-1.74,1.22-1.24,2.73l.22,.67h.02c.15-.67,.65-1.33,1.57-1.64,1.48-.49,2.96,.42,3.51,2.07,.67,2.03-.27,3.61-1.64,4.07-1.04,.34-1.79-.01-2.21-.42h-.02s.25,.93,.25,.93l-.95,.32Zm.34-2.73c.06,.19,.13,.34,.23,.47,.41,.57,1.11,.91,1.9,.65,1.04-.34,1.49-1.47,1.03-2.85-.39-1.17-1.3-1.95-2.48-1.57-.67,.22-1.13,.84-1.14,1.61,0,.21,.04,.42,.11,.61l.36,1.08Z"/><path class="cls-1" d="M58.55,91.71c.09,.64,.18,1.17,.29,1.68l-1,.14-.21-1.02h-.03c-.23,.64-.87,1.32-1.9,1.46-.86,.12-2.28-.21-2.58-2.35l-.52-3.73,1.13-.16,.5,3.6c.14,1,.63,1.79,1.7,1.64,.75-.1,1.25-.71,1.36-1.37,.03-.15,.03-.35,0-.54l-.52-3.75,1.13-.16,.64,4.55Z"/><path class="cls-1" d="M43.06,87.35c.22,.27,.42,.55,.72,.95,.83-.61,1.7-.81,2.66-.7,1.69,.2,2.54,1.45,2.39,2.75-.14,1.19-.94,1.92-2,2.35v.04c.38,.62,.58,1.29,.51,1.91-.12,1.06-1.01,2.06-2.46,1.89-1.09-.13-1.84-.95-1.71-2.07,.11-.92,.72-1.58,2.18-2.1v-.04c-.63-.94-1.35-1.99-1.83-2.67-.47,.56-.84,1.37-1.13,2.45l-1.03-.12c.39-1.34,.89-2.39,1.63-3.07-.41-.54-.8-1.09-1.26-1.7l1.34,.16Zm3.23,7.28c.07-.62-.16-1.13-.48-1.64-.94,.4-1.56,.8-1.65,1.54-.06,.53,.17,1.16,.88,1.24,.72,.08,1.17-.47,1.25-1.14Zm-2.03-5.62c.45,.63,1.3,1.8,2.14,3.02,.5-.24,1.22-.72,1.33-1.64,.12-1-.53-1.84-1.58-1.96-.75-.09-1.42,.18-1.89,.58Z"/><path class="cls-1" d="M35.44,94.31c-.54-.11-1.24-.3-2.09-.63-1.04-.41-1.71-.95-2.03-1.57-.3-.56-.33-1.26-.05-1.99,.29-.74,.73-1.24,1.31-1.5,.79-.38,1.82-.33,2.85,.07,.32,.12,.6,.25,.82,.4l1.27-3.28,1.06,.41-3.14,8.08Zm.48-4.35c-.21-.15-.49-.29-.84-.42-1.27-.5-2.29-.18-2.73,.95-.42,1.08,.14,1.9,1.31,2.35,.46,.18,.83,.28,1.03,.3l1.24-3.18Z"/><path class="cls-1" d="M30.61,87.54c-.36,.65-.66,1.21-.91,1.74l-.88-.49,.56-1.1-.05-.03c-.66,.6-1.52,.73-2.19,.36-.11-.06-.19-.12-.27-.19l.52-.94c.09,.08,.19,.15,.32,.22,.71,.39,1.5,.13,2.06-.54,.1-.12,.21-.27,.3-.44l1.63-2.94,.99,.55-2.1,3.79Z"/><path class="cls-1" d="M22.87,81.02c1.4-1.86,3.3-1.7,4.52-.79,1.36,1.03,1.66,2.81,.47,4.41-1.27,1.69-3.11,1.84-4.51,.8-1.45-1.09-1.63-2.88-.48-4.42Zm4.04,2.95c.83-1.1,.82-2.41-.07-3.09-.87-.66-2.15-.33-3,.81-.64,.85-1.03,2.26,.05,3.07,1.08,.81,2.3,.17,3.02-.79Z"/><path class="cls-1" d="M17.32,82.37l1.28-1.28-1.16-1.16,.62-.62,1.16,1.16,2.41-2.4c.55-.55,.71-1.02,.26-1.47-.21-.21-.4-.34-.52-.42l.57-.64c.22,.09,.51,.29,.83,.61,.38,.38,.56,.8,.53,1.21,0,.47-.32,.95-.85,1.47l-2.43,2.43,.69,.69-.62,.62-.69-.69-1.07,1.07-1-.58Z"/><path class="cls-1" d="M15.29,72.21c1.86-1.4,3.64-.72,4.56,.5,1.02,1.36,.81,3.16-.78,4.36-1.69,1.27-3.5,.9-4.55-.49-1.09-1.45-.77-3.21,.77-4.37Zm3.05,3.96c1.1-.83,1.46-2.09,.79-2.98-.66-.87-1.97-.91-3.1-.06-.85,.64-1.62,1.88-.8,2.96s2.16,.8,3.12,.08Z"/><path class="cls-1" d="M9.57,71.93l1.59-.87-.79-1.44,.76-.42,.79,1.44,2.98-1.63c.68-.38,.97-.78,.66-1.34-.14-.26-.28-.44-.39-.54l.73-.46c.19,.15,.41,.43,.62,.81,.26,.47,.31,.93,.17,1.32-.14,.45-.58,.82-1.23,1.17l-3.01,1.65,.47,.86-.77,.42-.47-.86-1.32,.72-.8-.84Z"/><path class="cls-1" d="M9.37,67.46l2.98-2.62c.34-.28,.74-.61,1.06-.84v-.02c-.4,.03-.9,.08-1.38,.09l-3.9,.16-.43-1.13h4.81c2.31-.02,3.54,.11,4.46,.59,.66,.34,1.05,.8,1.2,1.05l-.8,.61c-.19-.23-.49-.52-.88-.73-.34-.2-.9-.41-1.54-.44-.13,0-.23-.01-.29,.01-.06,.02-.14,.08-.25,.18l-4.58,4.26-.45-1.17Z"/><path class="cls-1" d="M9.25,61.01c-.79,.16-1.43,.31-2.01,.45l-.2-1.01,1.05-.26v-.03c-.85-.31-1.44-.95-1.64-1.96-.3-1.49,.75-2.87,2.62-3.24,2.22-.44,3.59,.7,3.88,2.15,.16,.82-.05,1.6-.59,2.1v.03s3.36-.67,3.36-.67l.22,1.11-6.69,1.33Zm1.43-1.44c.17-.03,.31-.09,.45-.14,.74-.36,1.14-1.14,.98-1.95-.24-1.19-1.34-1.68-2.76-1.4-1.24,.25-2.17,1.11-1.93,2.29,.15,.77,.84,1.37,1.73,1.42,.15,0,.32,.02,.47-.01l1.06-.21Z"/><path class="cls-1" d="M4.13,52.41c.39-.04,.72,.23,.75,.68,.03,.4-.27,.71-.66,.73-.4,.03-.73-.25-.76-.67-.03-.43,.27-.72,.67-.75Zm8.13,.74l-6.28,.41-.08-1.14,6.28-.41,.08,1.14Z"/><path class="cls-1" d="M7.47,50.09c-.65-.04-1.18-.06-1.71-.05l.06-1.01h1.04s0-.03,0-.03c-.58-.35-1.12-1.11-1.06-2.15,.05-.87,.66-2.19,2.81-2.06l3.76,.23-.07,1.14-3.63-.22c-1.01-.06-1.88,.26-1.95,1.34-.05,.75,.45,1.37,1.08,1.61,.14,.06,.33,.1,.53,.11l3.78,.23-.07,1.14-4.59-.28Z"/><path class="cls-1" d="M7.78,36.8c.44,.13,.92,.28,1.67,.46l3.55,.87c1.4,.35,2.19,.84,2.58,1.56,.41,.73,.37,1.63,.18,2.4-.18,.73-.56,1.5-1.01,1.91l-.78-.49c.35-.34,.74-.92,.92-1.68,.28-1.14-.11-2.12-1.65-2.5l-.68-.17v.03c.48,.48,.77,1.25,.54,2.2-.37,1.52-1.93,2.29-3.62,1.87-2.07-.51-2.91-2.15-2.57-3.55,.26-1.06,.96-1.51,1.53-1.65v-.03s-.9-.28-.9-.28l.24-.97Zm2.13,1.74c-.19-.05-.36-.07-.52-.06-.69,.04-1.36,.46-1.56,1.26-.26,1.06,.45,2.04,1.86,2.39,1.2,.3,2.35-.06,2.64-1.27,.17-.68-.11-1.41-.76-1.82-.17-.11-.38-.19-.57-.23l-1.1-.27Z"/></g><path class="cls-1" d="M42.69,49.37l6.73-6.73-6.51-6.51-3.4,3.4-1.45-1.45,3.4-3.4-6.36-6.36-6.73,6.73,14.32,14.32Zm22.35,22.35l6.73-6.73-6.36-6.36-3.4,3.4-1.45-1.45,3.4-3.4-6.44-6.44-6.73,6.73,14.25,14.25Zm.72-42.6l5.28,5.28-5.28-5.28Zm-29.07,42.52h-8.17v-8.17l12.73-12.73-15.62-15.69,9.47-9.47,15.77,15.69,13.52-13.52c.24-.24,.48-.41,.72-.51s.51-.14,.8-.14,.55,.05,.8,.14,.48,.27,.72,.51l4.99,5.21c.24,.24,.4,.48,.47,.72s.11,.51,.11,.8-.04,.54-.11,.76-.23,.45-.47,.69l-13.38,13.45,15.55,15.69-9.47,9.47-15.69-15.62-12.73,12.73Zm-6.15-2.02h5.28l28.42-28.42-5.28-5.28-28.42,28.42v5.28Zm31.1-31.1l-2.68-2.6,5.28,5.28-2.6-2.68Z"/></g></svg>